<svg xmlns="http://www.w3.org/2000/svg" viewBox="0 0 253.93 156.08"><defs><style>.cls-1{fill:#ad1e23;}.cls-2{fill:#457c3a;}.cls-3{fill:#333;}</style></defs><title>logo</title><g id="Слой_2" data-name="Слой 2"><g id="Layer_2" data-name="Layer 2"><path class="cls-1" d="M167.56,40.92a46.62,46.62,0,0,0-2.79-16.35,36.71,36.71,0,0,0-8.06-12.95A37.88,37.88,0,0,0,144,3.1,43.09,43.09,0,0,0,127.26,0a43.66,43.66,0,0,0-17.67,3.33,35.21,35.21,0,0,0-12.56,9,37.17,37.17,0,0,0-3.89,5.36,38.67,38.67,0,0,0-3.55,7.74A48.06,48.06,0,0,0,87.36,36c-.16,1.61-.25,3.24-.25,4.9V68.51a49.68,49.68,0,0,0,.26,5.06,48.17,48.17,0,0,0,2.22,10.59,38.67,38.67,0,0,0,3.55,7.74A37.17,37.17,0,0,0,97,97.26a35.09,35.09,0,0,0,12.56,9,43.49,43.49,0,0,0,17.67,3.33,45.82,45.82,0,0,0,16.58-2.86,35.41,35.41,0,0,0,12.71-8.22,36.57,36.57,0,0,0,8.14-12.94,48,48,0,0,0,2.87-17ZM148.49,69A27.44,27.44,0,0,1,147,78.12a21.94,21.94,0,0,1-4.21,7.28,19.2,19.2,0,0,1-6.69,4.89,21.68,21.68,0,0,1-8.94,1.78,21.24,21.24,0,0,1-9.41-1.94,19.19,19.19,0,0,1-6.61-5.19,22.31,22.31,0,0,1-4-7.36A28,28,0,0,1,105.87,69V40a26.28,26.28,0,0,1,1.32-8.22,21.66,21.66,0,0,1,4-7.2,18.81,18.81,0,0,1,6.61-5,22,22,0,0,1,9.41-1.86,21.68,21.68,0,0,1,8.94,1.78,19.65,19.65,0,0,1,6.69,4.81,21.37,21.37,0,0,1,4.21,7A25.15,25.15,0,0,1,148.49,40Z"/><path class="cls-2" d="M83.38,35.63A51.78,51.78,0,0,1,85.8,24.16a43.61,43.61,0,0,1,2.75-6.48H6.24L1.13,22.79V36H83.35C83.36,35.88,83.36,35.76,83.38,35.63Z"/><path class="cls-2" d="M83.38,74c0-.14,0-.26,0-.39H1.13V86.79L6.24,91.9H88.55a43,43,0,0,1-2.75-6.47A52.44,52.44,0,0,1,83.38,74Z"/><rect class="cls-1" x="1.13" y="45.62" width="81.99" height="18.33"/><path class="cls-2" d="M248.4,17.68H166a43.5,43.5,0,0,1,2.49,5.5A48.78,48.78,0,0,1,171.34,36h82.18V22.79Z"/><path class="cls-2" d="M168.43,87a43.21,43.21,0,0,1-2.22,4.93H248.4l5.12-5.11V73.57H171.35A49.31,49.31,0,0,1,168.43,87Z"/><rect class="cls-1" x="171.56" y="45.62" width="81.96" height="18.33"/><polygon class="cls-1" points="127.34 38.18 123.13 49.08 111.46 49.71 120.53 57.08 117.53 68.37 127.34 62.02 137.14 68.37 134.14 57.08 143.21 49.71 131.54 49.08 127.34 38.18"/><path class="cls-3" d="M17.08,125c11.34,0,17.08,4.58,17.08,13.37s-5.74,13.44-17.08,13.44S0,147.19,0,138.4,5.74,125,17.08,125Zm0,20.2c4.24,0,6.51-2.38,6.51-6.83s-2.27-6.86-6.51-6.86-6.51,2.41-6.51,6.86S12.85,145.23,17.08,145.23Z"/><path class="cls-3" d="M71,129.93l7.49,0c7.28,0,10.82,3.15,10.82,8.33s-3.54,8.13-10.82,8.13l-7.49,0v4.73H61.15v-4.73H53.66c-7.29,0-10.82-3.08-10.82-8.26s3.53-8.19,10.82-8.19h7.49v-4.27H71Zm-9.83,5.46H57.37c-2.94,0-4.2.52-4.2,2.69s1.33,2.77,4.27,2.77h3.71ZM71,140.85h3.71c2.94,0,4.27-.56,4.27-2.73s-1.33-2.73-4.27-2.73H71Z"/><path class="cls-3" d="M121.1,151.11V136l-10.67,15.13h-11V125.69h9.52v14.63l10.33-14.63h11.13v25.42Z"/><path class="cls-3" d="M152.39,125.73l0,18.69h11.23l0-18.69h9.83l0,18.69h2.8l0,11.66h-9.38v-5H142.55V125.73Z"/><path class="cls-3" d="M186.2,125.69h26.92v6.23H196V135h13.82v6.23H196v3.36H214v6.55H186.2Z"/><path class="cls-3" d="M223.68,125.69h19c7.28,0,11.24,3.08,11.24,8.23s-4,8.26-11.24,8.26h-9.17v8.93h-9.84Zm9.84,5.46v5.5h5.39c2.94,0,4.27-.56,4.27-2.77s-1.33-2.73-4.27-2.73Z"/></g></g></svg>