<?xml version="1.0" encoding="utf-8"?><svg xmlns="http://www.w3.org/2000/svg" xmlns:xlink="http://www.w3.org/1999/xlink"><symbol viewBox="0 0 14 8" id="angle-down" xmlns="http://www.w3.org/2000/svg"><path d="M13 1L7 7 1 1"/></symbol><symbol viewBox="0 0 14 8" id="angle-top" xmlns="http://www.w3.org/2000/svg"><path d="M1 7l6-6 6 6"/></symbol><symbol viewBox="0 0 344.96 344.96" id="check" xmlns="http://www.w3.org/2000/svg"><g data-name="Слой 2"><path d="M321.85 86.24l-40-23.11-23.1-40H212.5L172.48 0l-40 23.11H86.24l-23.11 40-40 23.1v46.21L0 172.48l23.11 40v46.21l40 23.11 23.11 40h46.21l40 23.1 40-23.11h46.21l23.11-40 40-23.11V212.5l23.11-40-23.11-40V86.24zM156.91 243.07a16.79 16.79 0 01-23.34 0l-50.45-50.44a16.19 16.19 0 010-22.89l13.35-13.35a16.19 16.19 0 0122.89 0l25.87 25.87 80.34-80.35a16.19 16.19 0 0122.89 0l13.35 13.35a16.19 16.19 0 010 22.89z" data-name="Capa 1"/></g></symbol><symbol viewBox="0 0 22 22" id="cross" xmlns="http://www.w3.org/2000/svg"><path d="M1 1l20 20M1 21L21 1"/></symbol><symbol viewBox="0 0 18 16" id="like" xmlns="http://www.w3.org/2000/svg"><path d="M17.027 3.54a5.078 5.078 0 00-1.111-1.618 5.182 5.182 0 00-3.64-1.48A5.216 5.216 0 009 1.595 5.216 5.216 0 005.725.442a5.182 5.182 0 00-3.641 1.48A5.048 5.048 0 00.562 5.529c0 .65.133 1.328.397 2.018A9 9 0 001.9 9.324c.641.955 1.522 1.951 2.616 2.961a29.236 29.236 0 003.683 2.877l.463.297c.205.13.469.13.674 0l.463-.297a29.605 29.605 0 003.683-2.877c1.094-1.01 1.975-2.006 2.616-2.96a8.935 8.935 0 00.941-1.778c.264-.69.396-1.367.396-2.018a4.972 4.972 0 00-.408-1.99zM9 13.913S2.047 9.46 2.047 5.53c0-1.99 1.646-3.603 3.678-3.603 1.427 0 2.666.797 3.275 1.96a3.688 3.688 0 013.275-1.96c2.032 0 3.678 1.613 3.678 3.603C15.953 9.46 9 13.914 9 13.914z"/></symbol><symbol viewBox="0 0 10 12" id="location" xmlns="http://www.w3.org/2000/svg"><path fill-rule="evenodd" clip-rule="evenodd" d="M5 3.582c-.786 0-1.429.645-1.429 1.433S4.214 6.448 5 6.448a1.435 1.435 0 000-2.866zM5 0c2.336 0 5 1.762 5 5.122 0 2.135-1.521 4.385-4.564 6.728-.257.2-.615.2-.872 0C1.521 9.5 0 7.257 0 5.122 0 1.762 2.664 0 5 0z"/></symbol><symbol viewBox="0 0 20 20" id="phone" xmlns="http://www.w3.org/2000/svg"><path d="M18.756 3.395L16.26.902a1.895 1.895 0 00-2.688 0l-2.686 2.686a1.896 1.896 0 000 2.688L12.85 8.24a9.229 9.229 0 01-1.887 2.72 9.265 9.265 0 01-2.72 1.895L6.277 10.89a1.896 1.896 0 00-2.688 0L.902 13.574a1.896 1.896 0 00-.558 1.345c0 .51.199.987.558 1.346l2.491 2.491a3.08 3.08 0 002.67.858c3.159-.52 6.292-2.2 8.821-4.727 2.527-2.524 4.205-5.656 4.732-8.825a3.085 3.085 0 00-.86-2.667z"/></symbol><symbol viewBox="0 0 14 14" id="scope" xmlns="http://www.w3.org/2000/svg"><path fill-rule="evenodd" clip-rule="evenodd" d="M9.883 8.933l3.587 3.586a.672.672 0 11-.951.951L8.932 9.883a5.333 5.333 0 11.95-.95h.001zm-4.216.734a4 4 0 100-8 4 4 0 000 8z"/></symbol><symbol viewBox="0 0 24 24" id="vue-btn-square" xmlns="http://www.w3.org/2000/svg"><circle cx="2" cy="2" r="2"/><circle cx="12" cy="2" r="2"/><circle cx="22" cy="2" r="2"/><circle cx="2" cy="12" r="2"/><circle cx="12" cy="12" r="2"/><circle cx="22" cy="12" r="2"/><circle cx="2" cy="22" r="2"/><circle cx="12" cy="22" r="2"/><circle cx="22" cy="22" r="2"/></symbol><symbol viewBox="0 0 24 24" id="vue-btn-table" xmlns="http://www.w3.org/2000/svg"><circle cx="2" cy="2" r="2"/><circle cx="2" cy="12" r="2"/><circle cx="2" cy="22" r="2"/><rect x="7" width="17" height="4" rx="2"/><rect x="7" y="10" width="17" height="4" rx="2"/><rect x="7" y="20" width="17" height="4" rx="2"/></symbol></svg>