<svg width="10" height="12" viewBox="0 0 10 12" fill="none" xmlns="http://www.w3.org/2000/svg">
<path fill-rule="evenodd" clip-rule="evenodd" d="M5 3.58209C4.21429 3.58209 3.57143 4.22687 3.57143 5.01493C3.57143 5.80299 4.21429 6.44776 5 6.44776C5.37888 6.44776 5.74224 6.2968 6.01015 6.02809C6.27806 5.75938 6.42857 5.39494 6.42857 5.01493C6.42857 4.63491 6.27806 4.27047 6.01015 4.00176C5.74224 3.73305 5.37888 3.58209 5 3.58209ZM5 0C7.33571 0 10 1.76239 10 5.12239C10 7.25731 8.47857 9.50687 5.43571 11.8496C5.17857 12.0501 4.82143 12.0501 4.56429 11.8496C1.52143 9.4997 0 7.25731 0 5.12239C0 1.76239 2.66429 0 5 0Z" fill="#AD1D22"/>
</svg>
