<svg width="14" height="14" viewBox="0 0 14 14" fill="none" xmlns="http://www.w3.org/2000/svg">
<path fill-rule="evenodd" clip-rule="evenodd" d="M9.88334 8.93266L13.47 12.5193C13.5961 12.6455 13.6669 12.8165 13.6668 12.9949C13.6667 13.1732 13.5958 13.3443 13.4697 13.4703C13.3435 13.5964 13.1724 13.6672 12.9941 13.6671C12.8158 13.6671 12.6447 13.5961 12.5187 13.47L8.932 9.88333C7.85981 10.7138 6.51152 11.1046 5.16142 10.9762C3.81132 10.8479 2.56082 10.21 1.66432 9.1924C0.767824 8.17479 0.292663 6.85387 0.335504 5.49836C0.378345 4.14285 0.93597 2.85457 1.89494 1.8956C2.85391 0.936626 4.14219 0.379001 5.4977 0.33616C6.85321 0.293319 8.17413 0.768481 9.19174 1.66498C10.2094 2.56148 10.8472 3.81198 10.9756 5.16208C11.1039 6.51218 10.7131 7.86047 9.88267 8.93266H9.88334ZM5.66667 9.66666C6.72754 9.66666 7.74495 9.24523 8.4951 8.49509C9.24524 7.74494 9.66667 6.72753 9.66667 5.66666C9.66667 4.60579 9.24524 3.58838 8.4951 2.83823C7.74495 2.08809 6.72754 1.66666 5.66667 1.66666C4.6058 1.66666 3.58839 2.08809 2.83824 2.83823C2.0881 3.58838 1.66667 4.60579 1.66667 5.66666C1.66667 6.72753 2.0881 7.74494 2.83824 8.49509C3.58839 9.24523 4.6058 9.66666 5.66667 9.66666Z" fill="#AD1D22"/>
</svg>
