<svg width="87" height="87" viewBox="0 0 87 87" fill="none" xmlns="http://www.w3.org/2000/svg">
<g clip-path="url(#clip0)">
<path d="M26.5076 62.8715C25.5697 62.8715 24.8084 63.6327 24.8084 64.5707C24.8084 65.5086 25.5697 66.2699 26.5076 66.2699C27.4456 66.2699 28.2068 65.5086 28.2068 64.5707C28.2068 63.6327 27.4456 62.8715 26.5076 62.8715Z" fill="#457C3A"/>
<path d="M76.489 32.286L86.5023 22.2726C86.9235 21.8514 87.0933 21.2404 86.9501 20.6623C86.8068 20.084 86.3711 19.6232 85.8019 19.4475L61.4181 11.9217C59.22 4.85615 52.6868 0.000976562 45.1989 0.000976562C38.2382 0.000976562 32.013 4.24308 29.4364 10.6423L1.19305 19.449C0.625346 19.6261 0.191366 20.0873 0.0491411 20.6648C-0.0930835 21.2422 0.0768384 21.8523 0.497395 22.2728L10.7741 32.5495L4.2926 43.3523C4.02735 43.7943 3.97722 44.3327 4.15598 44.8162C4.33474 45.2996 4.72335 45.6756 5.21239 45.8386L14.613 48.972V75.1063C14.613 75.8145 15.0524 76.4485 15.7156 76.6973C21.4635 78.8525 42.8202 86.8623 42.9349 86.9029C43.272 87.0217 43.6518 87.0379 44.022 86.9181C44.027 86.9164 44.0321 86.9153 44.037 86.9136L74.6229 76.7183C75.3167 76.4871 75.7848 75.8376 75.7848 75.1063V48.2722L85.8099 45.1219C86.3767 44.9438 86.8094 44.4826 86.9509 43.9056C87.0923 43.3285 86.9222 42.7195 86.5021 42.2993L76.489 32.286ZM62.1911 16.9932C62.1911 16.5614 62.1729 16.1306 62.1404 15.7013L82.1052 21.8635L73.6267 30.3419L59.7733 25.7246C61.342 23.1025 62.1911 20.0769 62.1911 16.9932ZM32.3404 12.5704C34.2267 7.08502 39.3942 3.39941 45.1989 3.39941C51.4522 3.39941 56.8758 7.62911 58.3879 13.6851C58.6565 14.7612 58.7926 15.8742 58.7926 16.9932C58.7926 20.1493 57.7452 23.1075 55.7633 25.5491C53.1674 28.7507 49.3168 30.5869 45.1989 30.5869C40.7476 30.5869 36.5725 28.4021 34.0294 24.7409C32.4436 22.463 31.6052 19.7836 31.6052 16.9932C31.6052 15.4756 31.8524 13.9876 32.3404 12.5704ZM4.8875 21.8568L28.3877 14.5291C28.2698 15.341 28.2067 16.1634 28.2067 16.993C28.2067 19.7289 28.8548 22.3788 30.0901 24.7698L13.3727 30.3419L4.8875 21.8568ZM8.29664 43.2843L13.6696 34.3291L40.9527 43.4235L35.58 52.3787C32.6667 51.4076 11.4072 44.321 8.29664 43.2843ZM41.8005 82.8498L18.0114 73.9289V50.1048C36.7283 56.3107 35.8143 56.1213 36.3354 56.1213C36.9196 56.1213 37.479 55.819 37.7929 55.2961L41.8005 48.6163V82.8498ZM43.4997 40.6903L18.2874 32.2863L32.016 27.7103C35.2292 31.6605 40.0664 33.9854 45.1989 33.9854C49.9469 33.9854 54.4092 32.0314 57.6188 28.5888L68.712 32.2861L43.4997 40.6903ZM72.3864 73.8817L45.1989 82.9441V47.3251L51.2228 54.8543C51.661 55.402 52.3905 55.6239 53.0591 55.4139L72.3864 49.3403V73.8817ZM53.1499 51.8232L46.3489 43.3227L73.6267 34.2302L82.1166 42.7202L53.1499 51.8232Z" fill="#457C3A"/>
<path d="M37.2997 66.6431L33.5206 65.226C32.642 64.8967 31.6625 65.3417 31.3329 66.2204C31.0034 67.0992 31.4486 68.0786 32.3273 68.4081L36.1063 69.8253C36.9869 70.1552 37.9651 69.708 38.2941 68.8309C38.6235 67.9522 38.1784 66.9726 37.2997 66.6431Z" fill="#457C3A"/>
<path d="M37.2996 73.902L27.1042 70.0787C26.2256 69.7492 25.2462 70.1944 24.9165 71.0731C24.5869 71.9518 25.0322 72.9314 25.9109 73.2609L36.1062 77.0841C36.3028 77.1578 36.5043 77.1929 36.7026 77.1929C37.3906 77.1929 38.038 76.772 38.2939 76.0897C38.6236 75.2109 38.1784 74.2315 37.2996 73.902Z" fill="#457C3A"/>
<path d="M54.8969 10.6932C54.2333 10.0294 53.1574 10.0296 52.4936 10.6932L43.4999 19.6871L41.3029 17.4902C40.6394 16.8267 39.5634 16.8267 38.8997 17.4902C38.236 18.1537 38.2362 19.2297 38.8997 19.8934L42.2983 23.2917C42.9619 23.9552 44.0378 23.9552 44.7015 23.2917L54.8969 13.0964C55.5604 12.4328 55.5604 11.3569 54.8969 10.6932Z" fill="#457C3A"/>
</g>
<defs>
<clipPath id="clip0">
<rect width="87" height="87" fill="white"/>
</clipPath>
</defs>
</svg>
