<svg width="82" height="82" viewBox="0 0 82 82" fill="none" xmlns="http://www.w3.org/2000/svg">
<path d="M27.7749 23.8064C25.5873 23.8064 23.8071 25.5866 23.8071 27.7741V31.5541C23.8071 35.4398 25.3215 39.0928 28.0685 41.8411L33.2252 46.9992C34.4737 48.2477 36.1349 48.9354 37.9019 48.9354H44.0995C45.8664 48.9354 47.5276 48.2477 48.7761 46.9992L53.9329 41.8411C56.6799 39.0928 58.1942 35.4398 58.1942 31.5541V27.7741C58.1942 25.5866 56.414 23.8064 54.2265 23.8064H27.7749ZM52.0627 39.971L46.906 45.129C46.1561 45.8776 45.1602 46.2903 44.0995 46.2903H37.9019C36.8411 46.2903 35.8439 45.8776 35.0953 45.129L29.9386 39.971C29.0406 39.0729 28.3118 38.0519 27.751 36.9528C30.0973 36.769 32.3801 36.0773 34.4076 34.8605C36.365 33.6861 38.6068 33.0658 40.8882 33.0658H41.1131C43.3959 33.0658 45.6363 33.6861 47.5937 34.8605C49.6212 36.0773 51.904 36.769 54.2503 36.9528C53.6895 38.0519 52.9608 39.0716 52.0627 39.971ZM55.5491 27.7741V31.5541C55.5491 32.5169 55.4221 33.4586 55.2012 34.3712C53.0004 34.3302 50.846 33.7258 48.956 32.5923C46.5872 31.1705 43.8746 30.4193 41.1131 30.4193H40.8882C38.1267 30.4193 35.4141 31.1705 33.0453 32.5923C31.1831 33.7099 29.0604 34.3077 26.7975 34.3646C26.5792 33.4533 26.4523 32.5143 26.4523 31.5541V27.7741C26.4523 27.0454 27.0448 26.4516 27.7749 26.4516H54.2265C54.9565 26.4516 55.5491 27.0454 55.5491 27.7741Z" fill="#457C3A"/>
<path d="M74.0348 64.5076C73.146 59.1789 69.4097 54.8064 64.2847 53.0977L52.9039 49.3045V47.6129H50.2587V51.2117L59.4308 54.2695L57.2419 60.8387H53.1949L54.2013 55.8076L51.6078 55.2879L50.3844 61.4048L47.6122 63.4839C46.4775 64.337 45.0676 64.8065 43.6458 64.8065H38.3555C36.9337 64.8065 35.5239 64.337 34.3878 63.4839L31.6183 61.4074L30.3949 55.2892L27.8013 55.8089L28.8065 60.8387H24.7594L22.5692 54.2695L31.7426 51.2117V47.6129H29.0974V49.3045L17.718 53.0977C12.593 54.8064 8.85666 59.1789 7.96789 64.5076L5.0516 82H76.9484L74.0348 64.5076ZM70.4611 63.6677L70.9717 63.1572C71.1634 63.7365 71.3221 64.329 71.4253 64.9427L72.9185 73.9032C71.0973 73.4376 69.6742 71.9114 69.4308 69.9725L69.128 67.5508C68.9481 66.1092 69.4335 64.694 70.4611 63.6677ZM10.5747 64.9427C10.6911 64.2457 10.8868 63.5791 11.117 62.9284L11.8589 63.669C12.8852 64.6967 13.372 66.1105 13.1908 67.5508L12.8879 69.9725C12.63 72.0291 11.0495 73.636 9.06827 73.9878L10.5747 64.9427ZM8.17553 79.3549L8.62124 76.6753C12.138 76.4968 15.0701 73.8304 15.5119 70.3018L15.8148 67.8801C16.0978 65.6238 15.3373 63.4085 13.729 61.7989L12.339 60.4089C13.7806 58.1909 15.947 56.4768 18.5538 55.6079L20.0616 55.1053L22.4845 62.3742V63.1718C22.4845 64.4917 21.7505 65.678 20.5708 66.2679L20.2573 66.4253L20.0629 66.7176C19.9439 66.8935 17.1942 71.0689 17.1942 75.3871C17.1942 77.117 17.4283 78.4013 17.7219 79.3549H8.17553ZM61.4491 79.3549H42.3232V70.0968H39.6781V79.3549H20.5575C20.2705 78.7809 19.8394 77.5667 19.8394 75.3871C19.8394 72.4245 21.5521 69.3522 22.0983 68.4475C23.8891 67.408 25.0186 65.555 25.1218 63.4839H29.9796L32.8007 65.6C34.3917 66.7943 36.3637 67.4516 38.3555 67.4516H43.6458C45.6376 67.4516 47.6096 66.793 49.1993 65.6L52.0217 63.4839H56.8796C56.9827 65.5564 58.1135 67.4093 59.9043 68.4489C60.4505 69.3495 62.1619 72.4087 62.1619 75.3871C62.1619 77.5813 61.7255 78.7967 61.4491 79.3549ZM64.2794 79.3549C64.573 78.4013 64.8071 77.117 64.8071 75.3871C64.8071 71.0689 62.0575 66.8935 61.9398 66.7176L61.7453 66.4253L61.4319 66.2679C60.2508 65.678 59.5168 64.4917 59.5168 63.1718V62.3742L61.9398 55.1053L63.4475 55.6079C66.131 56.502 68.3397 58.2954 69.78 60.6086L68.591 61.7976C66.9828 63.4045 66.2223 65.6212 66.504 67.8788L66.8069 70.3005C67.234 73.7207 70.0035 76.3222 73.3748 76.6449L73.8258 79.3549H64.2794Z" fill="#457C3A"/>
<path d="M21.162 25.998C21.162 24.9531 21.5852 23.9321 22.3245 23.1915L23.0321 22.4839C23.532 21.9839 23.8071 21.32 23.8071 20.6137V19.8387C23.8071 10.3585 31.5204 2.64516 41.0007 2.64516C50.4809 2.64516 58.1942 10.3585 58.1942 19.8387V20.6137C58.1942 21.32 58.4693 21.9839 58.9692 22.4839L59.6768 23.1928C60.4161 23.9308 60.8394 24.9531 60.8394 25.998V30.4194H63.4845V25.998C63.4845 24.2323 62.7955 22.5712 61.547 21.3226L60.8394 20.6137V19.8387C60.8394 8.89965 51.9397 0 41.0007 0C30.0616 0 21.162 8.89965 21.162 19.8387V20.6137L20.4544 21.3226C19.2059 22.5712 18.5168 24.2323 18.5168 25.998V30.4194H21.162V25.998Z" fill="#457C3A"/>
</svg>
