<svg width="76" height="76" viewBox="0 0 76 76" fill="none" xmlns="http://www.w3.org/2000/svg">
<g clip-path="url(#clip0)">
<path d="M75.3477 0.652281C74.4783 -0.217264 73.0683 -0.217264 72.1987 0.652281L65.7135 7.1375C65.3148 6.9475 64.8941 6.79447 64.4549 6.68477L44.3014 1.70574C42.0384 1.14005 39.6076 1.81321 37.958 3.46279L1.95349 39.4081C-0.650839 42.0125 -0.650839 46.2504 1.95349 48.855L27.1452 74.0466C29.7497 76.6511 33.9876 76.6513 36.5922 74.0466L72.5375 38.042C74.187 36.3924 74.8604 33.9616 74.2944 31.6984L69.3155 11.545C69.2056 11.106 69.0528 10.6852 68.8628 10.2865L75.348 3.80123C76.2172 2.93168 76.2172 1.52183 75.3477 0.652281ZM69.9738 32.7787C70.1625 33.5331 69.938 34.3432 69.3882 34.8932L33.443 70.8977C32.5748 71.7659 31.1621 71.7659 30.2939 70.8977L5.10229 45.706C4.23408 44.8377 4.23408 43.4251 5.10229 42.5569L41.1069 6.61174C41.528 6.19062 42.1019 5.9604 42.6864 5.9604C42.8652 5.9604 43.0449 5.98192 43.2214 6.02601L62.1516 10.6993L56.7893 16.0616C54.3067 14.8791 51.2401 15.3128 49.1878 17.3651C46.5832 19.9698 46.5832 24.2075 49.1878 26.8121C50.4899 28.1144 52.2007 28.7656 53.9113 28.7656C55.6217 28.7656 57.3324 28.1145 58.6345 26.8121C60.6873 24.7595 61.1209 21.6931 59.9381 19.2105L65.3004 13.8482L69.9738 32.7787ZM55.4857 23.6633C54.6177 24.5314 53.205 24.5315 52.3368 23.6633C51.4687 22.7953 51.4687 21.3824 52.3368 20.5144C52.771 20.0802 53.341 19.8633 53.9113 19.8633C54.4813 19.8633 55.0516 20.0803 55.4854 20.5142L55.4856 20.5144L55.4857 20.5145C56.354 21.3826 56.3538 22.7953 55.4857 23.6633Z" fill="#457C3A"/>
<path d="M36.5919 26.8122C33.9874 24.2078 29.7495 24.2078 27.1449 26.8122C24.5405 29.4167 24.5405 33.6546 27.1449 36.2592C29.7493 38.8637 33.9874 38.8637 36.5919 36.2592C39.1965 33.6546 39.1965 29.4169 36.5919 26.8122ZM33.4431 33.1101C32.5748 33.9784 31.1622 33.9784 30.2941 33.1101C29.4261 32.2419 29.4258 30.8293 30.294 29.9612C31.1622 29.0931 32.5747 29.093 33.4431 29.9612C34.3111 30.8293 34.3111 32.2419 33.4431 33.1101Z" fill="#457C3A"/>
<path d="M39.7408 48.8548C37.1302 46.2442 32.905 46.2439 30.294 48.8548C27.6893 51.4594 27.6893 55.6971 30.294 58.3018C32.9047 60.9123 37.1299 60.9128 39.7408 58.3018C42.3454 55.6971 42.3454 51.4594 39.7408 48.8548ZM36.5918 55.1528C35.7219 56.023 34.313 56.0231 33.4429 55.1528C32.5748 54.2848 32.5748 52.8719 33.4429 52.0039C34.313 51.1337 35.7217 51.1336 36.5918 52.0039C37.4599 52.8719 37.4599 54.2845 36.5918 55.1528Z" fill="#457C3A"/>
<path d="M49.8264 40.7367C49.6905 39.5144 48.5894 38.6336 47.3673 38.7694L19.0268 41.9184C17.8046 42.0542 16.9238 43.155 17.0596 44.3774C17.1862 45.516 18.1502 46.3584 19.27 46.3584C19.3521 46.3584 19.4352 46.3538 19.5186 46.3446L47.8593 43.1957C49.0815 43.0597 49.9623 41.9589 49.8264 40.7367Z" fill="#457C3A"/>
</g>
<defs>
<clipPath id="clip0">
<rect width="76" height="76" fill="white"/>
</clipPath>
</defs>
</svg>
