<svg width="90" height="90" viewBox="0 0 90 90" fill="none" xmlns="http://www.w3.org/2000/svg">
<g clip-path="url(#clip0)">
<path d="M84.7266 66.0939H79.4529V48.5159H82.9686C84.9071 48.5159 86.4842 46.9388 86.4842 45.0003V30.9376C86.4842 28.9991 84.9071 27.422 82.9686 27.422H79.2761C78.5753 23.9832 75.8605 21.2684 72.4217 20.5676V8.08569C72.4217 6.14718 70.8446 4.57007 68.9061 4.57007H65.3903C63.4518 4.57007 61.8746 6.14718 61.8746 8.08569V20.3907H56.601V15.1173C56.601 14.1465 55.8141 13.3595 54.8432 13.3595C53.8724 13.3595 53.0854 14.1465 53.0854 15.1173V20.3907H21.0938V16.8749C21.0938 14.9364 19.5166 13.3593 17.5781 13.3593H14.0625C12.124 13.3593 10.5469 14.9364 10.5469 16.8749V20.5676C6.53994 21.3843 3.51562 24.9352 3.51562 29.1798V46.7574C3.51562 49.6652 5.88129 52.0308 8.78906 52.0308H10.5469V55.5465C10.5469 57.485 12.124 59.0621 14.0625 59.0621V66.0939H5.27344C2.36566 66.0939 0 68.4595 0 71.3673V81.9142C0 83.8527 1.57711 85.4298 3.51562 85.4298H86.4844C88.4229 85.4298 90 83.8527 90 81.9142V71.3673C90 68.4595 87.6343 66.0939 84.7266 66.0939ZM82.9686 45.0003H79.4529V30.9376H82.9686V45.0003ZM65.3903 8.08569H68.9059V20.3907H65.3903V8.08569ZM17.5781 16.8749V20.3906H14.0625V16.8749H17.5781ZM15.8203 36.2114C14.3664 36.2114 13.1836 35.0286 13.1836 33.5747C13.1836 32.1208 14.3664 30.938 15.8203 30.938C17.2742 30.938 18.457 32.1208 18.457 33.5747C18.457 35.0286 17.2742 36.2114 15.8203 36.2114ZM7.03125 46.7574V29.1798C7.03125 26.272 9.39691 23.9064 12.3047 23.9064H14.0625V27.6793C11.524 28.4376 9.66797 30.7928 9.66797 33.5745C9.66797 36.3562 11.5242 38.7114 14.0625 39.4697V42.3632C14.0625 43.3341 14.8495 44.121 15.8203 44.121C16.7912 44.121 17.5781 43.3341 17.5781 42.3632V39.4699C20.1164 38.7115 21.9727 36.3564 21.9727 33.5747C21.9727 30.7929 20.1164 28.4378 17.5781 27.6795V23.9065H70.6639C73.5717 23.9065 75.9373 26.2722 75.9373 29.18V66.094H49.2195V50.273C49.2195 47.3652 46.8538 44.9996 43.946 44.9996H26.3672C25.3963 44.9996 24.6094 45.7866 24.6094 46.7574C24.6094 47.7267 23.8208 48.5152 22.8516 48.5152H8.78906C7.8198 48.5152 7.03125 47.7267 7.03125 46.7574ZM17.5781 52.0308V55.5465H14.0625V52.0308H17.5781ZM17.5781 59.0621C19.5166 59.0621 21.0938 57.485 21.0938 55.5465V52.0308H22.8516C25.1434 52.0308 27.0983 50.5615 27.8237 48.5152H43.946C44.9153 48.5152 45.7038 49.3038 45.7038 50.273V66.094H17.5781V59.0621ZM3.51562 81.9142V76.7068H7.90963C8.88047 76.7068 9.66744 75.9199 9.66744 74.949C9.66744 73.9782 8.88047 73.1912 7.90963 73.1912H3.51562V71.3673C3.51562 70.398 4.30418 69.6095 5.27344 69.6095H84.7266C85.6958 69.6095 86.4844 70.398 86.4844 71.3673V73.1912H23.7299C22.7591 73.1912 21.9721 73.9782 21.9721 74.949C21.9721 75.9199 22.7591 76.7068 23.7299 76.7068H86.4844V81.9142H3.51562Z" fill="#457C3A"/>
<path d="M62.5783 43.2422C57.2474 43.2422 52.9104 47.5792 52.9104 52.9102C52.9104 58.2411 57.2474 62.5781 62.5783 62.5781C67.9093 62.5781 72.2463 58.2411 72.2463 52.9102C72.2463 47.5792 67.9094 43.2422 62.5783 43.2422ZM62.5783 59.0625C59.1859 59.0625 56.426 56.3026 56.426 52.9102C56.426 49.5178 59.1859 46.7578 62.5783 46.7578C65.9707 46.7578 68.7307 49.5178 68.7307 52.9102C68.7307 56.3026 65.9707 59.0625 62.5783 59.0625Z" fill="#457C3A"/>
<path d="M47.4616 34.4535H53.2128C53.9384 36.4994 55.8923 37.9691 58.1837 37.9691H66.9728C69.8806 37.9691 72.2462 35.6035 72.2462 32.6957C72.2462 29.7879 69.8806 27.4222 66.9728 27.4222H58.1837C55.8923 27.4222 53.9384 28.8919 53.2128 30.9379H47.4616C46.4908 30.9379 45.7038 31.7248 45.7038 32.6957C45.7038 33.6665 46.4908 34.4535 47.4616 34.4535ZM58.1837 30.9379H66.9728C67.9421 30.9379 68.7306 31.7264 68.7306 32.6957C68.7306 33.6649 67.9421 34.4535 66.9728 34.4535H58.1837C57.2145 34.4535 56.4259 33.6649 56.4259 32.6957C56.4259 31.7264 57.2145 30.9379 58.1837 30.9379Z" fill="#457C3A"/>
<path d="M62.5778 51.1523C61.6069 51.1523 60.8199 51.9393 60.8199 52.9102C60.8199 53.881 61.6069 54.668 62.5778 54.668H62.579C63.5498 54.668 64.3363 53.881 64.3363 52.9102C64.3363 51.9393 63.5486 51.1523 62.5778 51.1523Z" fill="#457C3A"/>
<path d="M15.8203 73.1913H15.8191C14.8482 73.1913 14.062 73.9783 14.062 74.9491C14.062 75.9199 14.8495 76.7069 15.8203 76.7069C16.7912 76.7069 17.5781 75.9199 17.5781 74.9491C17.5781 73.9783 16.7912 73.1913 15.8203 73.1913Z" fill="#457C3A"/>
</g>
<defs>
<clipPath id="clip0">
<rect width="90" height="90" fill="white"/>
</clipPath>
</defs>
</svg>
