<svg width="40" height="40" viewBox="0 0 40 40" fill="none" xmlns="http://www.w3.org/2000/svg">
<g clip-path="url(#clip0)">
<path d="M2.34375 29.3751H4.68758V21.5627H3.12508C2.26352 21.5627 1.56258 20.8617 1.56258 20.0002V13.7501C1.56258 12.8885 2.26352 12.1876 3.12508 12.1876H4.76617C5.07766 10.6592 6.28422 9.45266 7.81258 9.14118V3.59368C7.81258 2.73212 8.51352 2.03118 9.37508 2.03118H10.9377C11.7992 2.03118 12.5002 2.73212 12.5002 3.59368V9.06258H14.844V6.71883C14.844 6.28735 15.1937 5.93758 15.6252 5.93758C16.0567 5.93758 16.4065 6.28735 16.4065 6.71883V9.06258H30.625V7.50001C30.625 6.63844 31.3259 5.93751 32.1875 5.93751H33.75C34.6116 5.93751 35.3125 6.63844 35.3125 7.50001V9.14118C37.0934 9.50415 38.4375 11.0824 38.4375 12.9688V20.7811C38.4375 22.0734 37.3861 23.1248 36.0938 23.1248H35.3125V24.6873C35.3125 25.5489 34.6116 26.2498 33.75 26.2498V29.3751H37.6562C38.9486 29.3751 40 30.4265 40 31.7188V36.4063C40 37.2679 39.2991 37.9688 38.4375 37.9688H1.5625C0.700939 37.9688 0 37.2679 0 36.4063V31.7188C0 30.4265 1.05141 29.3751 2.34375 29.3751ZM3.12508 20.0002H4.68758V13.7501H3.12508V20.0002ZM10.9377 3.59368H9.37516V9.06258H10.9377V3.59368ZM32.1875 7.50001V9.06251H33.75V7.50001H32.1875ZM32.9688 16.094C33.6149 16.094 34.1406 15.5683 34.1406 14.9221C34.1406 14.2759 33.6149 13.7502 32.9688 13.7502C32.3226 13.7502 31.7969 14.2759 31.7969 14.9221C31.7969 15.5683 32.3226 16.094 32.9688 16.094ZM36.875 20.7811V12.9688C36.875 11.6765 35.8236 10.6251 34.5312 10.6251H33.75V12.302C34.8782 12.639 35.7031 13.6857 35.7031 14.922C35.7031 16.1584 34.8781 17.2051 33.75 17.5421V18.8281C33.75 19.2596 33.4002 19.6094 32.9688 19.6094C32.5373 19.6094 32.1875 19.2596 32.1875 18.8281V17.5422C31.0594 17.2052 30.2344 16.1584 30.2344 14.9221C30.2344 13.6858 31.0594 12.6391 32.1875 12.302V10.6252H8.59383C7.30148 10.6252 6.25008 11.6766 6.25008 12.9689V29.3752H18.1247V22.3436C18.1247 21.0513 19.1761 19.9998 20.4684 19.9998H28.2812C28.7127 19.9998 29.0625 20.3496 29.0625 20.7811C29.0625 21.2119 29.413 21.5623 29.8438 21.5623H36.0938C36.5245 21.5623 36.875 21.2119 36.875 20.7811ZM32.1875 23.1248V24.6873H33.75V23.1248H32.1875ZM32.1875 26.2498C31.3259 26.2498 30.625 25.5489 30.625 24.6873V23.1248H29.8438C28.8252 23.1248 27.9563 22.4718 27.6339 21.5623H20.4684C20.0377 21.5623 19.6872 21.9128 19.6872 22.3436V29.3752H32.1875V26.2498ZM38.4375 36.4063V34.092H36.4846C36.0531 34.092 35.7034 33.7422 35.7034 33.3107C35.7034 32.8792 36.0531 32.5295 36.4846 32.5295H38.4375V31.7188C38.4375 31.2881 38.087 30.9376 37.6562 30.9376H2.34375C1.91297 30.9376 1.5625 31.2881 1.5625 31.7188V32.5295H29.4534C29.8848 32.5295 30.2346 32.8792 30.2346 33.3107C30.2346 33.7422 29.8848 34.092 29.4534 34.092H1.5625V36.4063H38.4375Z" fill="white"/>
<path d="M12.1874 19.2188C14.5567 19.2188 16.4843 21.1463 16.4843 23.5156C16.4843 25.8849 14.5567 27.8125 12.1874 27.8125C9.81811 27.8125 7.89053 25.8849 7.89053 23.5156C7.89053 21.1463 9.81803 19.2188 12.1874 19.2188ZM12.1874 26.25C13.6951 26.25 14.9218 25.0234 14.9218 23.5156C14.9218 22.0079 13.6951 20.7813 12.1874 20.7813C10.6797 20.7813 9.45303 22.0079 9.45303 23.5156C9.45303 25.0234 10.6797 26.25 12.1874 26.25Z" fill="white"/>
<path d="M18.9059 15.3127H16.3499C16.0274 16.222 15.159 16.8752 14.1406 16.8752H10.2343C8.94196 16.8752 7.89055 15.8238 7.89055 14.5314C7.89055 13.2391 8.94196 12.1877 10.2343 12.1877H14.1406C15.159 12.1877 16.0274 12.8409 16.3499 13.7502H18.9059C19.3374 13.7502 19.6872 14.0999 19.6872 14.5314C19.6872 14.9629 19.3374 15.3127 18.9059 15.3127ZM14.1406 13.7502H10.2343C9.80352 13.7502 9.45305 14.1006 9.45305 14.5314C9.45305 14.9622 9.80352 15.3127 10.2343 15.3127H14.1406C14.5713 15.3127 14.9218 14.9622 14.9218 14.5314C14.9218 14.1006 14.5713 13.7502 14.1406 13.7502Z" fill="white"/>
<path d="M12.1877 22.7344C12.6191 22.7344 12.9689 23.0841 12.9689 23.5156C12.9689 23.9471 12.6191 24.2969 12.1877 24.2969H12.1871C11.7556 24.2969 11.4061 23.9471 11.4061 23.5156C11.4061 23.0841 11.7562 22.7344 12.1877 22.7344Z" fill="white"/>
<path d="M32.9688 32.5295H32.9693C33.4008 32.5295 33.7502 32.8792 33.7502 33.3107C33.7502 33.7422 33.4002 34.092 32.9688 34.092C32.5373 34.092 32.1875 33.7422 32.1875 33.3107C32.1875 32.8792 32.5373 32.5295 32.9688 32.5295Z" fill="white"/>
</g>
<defs>
<clipPath id="clip0">
<rect width="40" height="40" transform="matrix(-1 0 0 1 40 0)" fill="white"/>
</clipPath>
</defs>
</svg>
