<svg width="37" height="37" viewBox="0 0 37 37" fill="none" xmlns="http://www.w3.org/2000/svg">
<g clip-path="url(#clip0)">
<path d="M17.8701 15.4885H20.3285V16.7177H17.8701V15.4885Z" fill="white"/>
<path d="M25.2455 15.4885H27.7039V16.7177H25.2455V15.4885Z" fill="white"/>
<path d="M25.2455 20.4054H27.7039V21.6347H25.2455V20.4054Z" fill="white"/>
<path d="M17.8701 20.4054H20.3285V21.6347H17.8701V20.4054Z" fill="white"/>
<path d="M17.8701 25.3224H20.3285V26.5516H17.8701V25.3224Z" fill="white"/>
<path d="M25.2455 25.3224H27.7039V26.5516H25.2455V25.3224Z" fill="white"/>
<path d="M24.6309 33.3124H25.8601V34.5416H24.6309V33.3124Z" fill="white"/>
<path d="M35.0794 9.5881L18.4847 1.90735e-06L1.89 9.5881V24.7078H3.11923V10.3255L18.4847 1.47503L33.8501 10.3255V35.7709H27.7039C28.0113 35.4021 28.1955 34.9717 28.257 34.5417H30.777C31.8217 34.5417 32.6209 33.7425 32.6209 32.6978V29.6247C32.6209 28.5797 31.8217 27.7809 30.777 27.7809V14.8739C30.777 13.8904 29.9779 13.03 28.9947 13.03H16.5793C15.5959 13.03 14.797 13.8904 14.797 14.8739V27.7809H13.5677V17.3323H12.3385V18.5616H9.38815C8.71231 18.5616 8.0977 18.9301 7.79039 19.5447L3.36502 27.8421C3.18075 28.0882 3.11923 28.3955 3.11923 28.7028V32.6978C3.11923 33.7425 3.91812 34.5417 4.96309 34.5417H6.25384C6.37659 34.9717 6.56115 35.4021 6.80694 35.7709H0.0461426V37.0001H36.9232V35.7709H35.0794V9.5881ZM12.277 34.5417H22.2339C22.3567 34.9717 22.5412 35.4021 22.787 35.7709H11.7239C11.9697 35.4021 12.1539 34.9717 12.277 34.5417ZM23.4016 33.927C23.4016 32.8821 24.2005 32.0832 25.2455 32.0832C26.2901 32.0832 27.0893 32.8821 27.0893 33.927C27.0893 34.9717 26.2901 35.7709 25.2455 35.7709C24.2005 35.7709 23.4016 34.9717 23.4016 33.927ZM23.4016 27.7809V24.0931H29.5478V27.7809H23.4016ZM23.4016 19.1762H29.5478V22.8639H23.4016V19.1762ZM22.1724 22.8639H16.0262V19.1762H22.1724V22.8639ZM29.5478 14.8739V17.947H23.4016V14.2593H28.9947C29.302 14.2593 29.5478 14.5666 29.5478 14.8739ZM16.5793 14.2593H22.1724V17.947H16.0262V14.8739C16.0262 14.5666 16.272 14.2593 16.5793 14.2593ZM16.0262 24.0931H22.1724V27.7809H16.0262V24.0931ZM8.83506 20.0981C8.9581 19.9136 9.14237 19.7908 9.38815 19.7908H12.3385V27.7809H4.77852L8.83506 20.0981ZM4.34847 32.6978V29.0101H30.777C31.1459 29.0101 31.3917 29.2559 31.3917 29.6247V32.6978C31.3917 33.0663 31.1459 33.3124 30.777 33.3124H28.257C27.8882 31.6528 26.2901 30.5466 24.6309 30.9152C23.4016 31.1613 22.4797 32.0832 22.2339 33.3124H12.277C11.9081 31.6528 10.3101 30.5466 8.65079 30.9152C7.42156 31.1613 6.49963 32.0832 6.25384 33.3124H4.96309C4.59425 33.3124 4.34847 33.0663 4.34847 32.6978ZM7.42156 33.927C7.42156 32.8821 8.22044 32.0832 9.26541 32.0832C10.3101 32.0832 11.1093 32.8821 11.1093 33.927C11.1093 34.9717 10.3101 35.7709 9.26541 35.7709C8.22044 35.7709 7.42156 34.9717 7.42156 33.927Z" fill="white"/>
<path d="M8.65079 33.3124H9.88003V34.5416H8.65079V33.3124Z" fill="white"/>
<path d="M22.1724 5.90039L18.4847 3.68771L14.797 5.90039V11.1862H22.1724V5.90039ZM16.0262 6.63775L17.8701 5.53156V9.95693H16.0262V6.63775ZM20.9431 9.95693H19.0993V5.53156L20.9431 6.63775V9.95693Z" fill="white"/>
</g>
<defs>
<clipPath id="clip0">
<rect width="37" height="37" fill="white"/>
</clipPath>
</defs>
</svg>
